<!--?xml version="1.0" standalone="no"?-->
              <svg id="sw-js-blob-svg" viewBox="0 0 100 100" xmlns="http://www.w3.org/2000/svg" version="1.1">
                    <defs> 
                        <linearGradient id="sw-gradient" x1="0" x2="1" y1="1" y2="0">
                            <stop id="stop1" stop-color="rgba(248, 117, 55, 1)" offset="0%"></stop>
                            <stop id="stop2" stop-color="rgba(251, 168, 31, 1)" offset="100%"></stop>
                        </linearGradient>
                    </defs>
                <path fill="url(#sw-gradient)" d="M21.3,-24.4C28.1,-19.6,34.5,-13.4,35.8,-6.3C37.1,0.8,33.3,8.9,28.7,16.3C24.1,23.6,18.8,30.2,11.3,34.3C3.9,38.4,-5.6,40,-13.7,37.2C-21.7,34.4,-28.4,27.3,-32.5,19.2C-36.7,11.1,-38.4,2,-37.7,-7.5C-37.1,-17.1,-34.2,-27.2,-27.5,-31.9C-20.8,-36.7,-10.4,-36.3,-1.6,-34.4C7.2,-32.5,14.5,-29.2,21.3,-24.4Z" width="100%" height="100%" transform="translate(50 50)" stroke-width="0" style="transition: all 0.3s ease 0s;"></path>
              </svg>